<?xml version="1.0" standalone="no"?>
<svg viewBox="0 0 200 200" xmlns="http://www.w3.org/2000/svg">
  <path fill="#88CFAC" d="M47.7,-72.3C61.3,-65.4,71.5,-51.4,70.5,-37C69.5,-22.7,57.3,-8.1,54.8,7.8C52.4,23.7,59.7,40.9,55.8,52.1C51.9,63.4,36.8,68.7,23.3,67.1C9.7,65.6,-2.3,57.1,-14.3,52.1C-26.3,47,-38.2,45.2,-48,38.9C-57.9,32.5,-65.5,21.5,-69.2,8.8C-72.9,-4,-72.5,-18.5,-66.5,-29.9C-60.6,-41.3,-48.9,-49.6,-36.8,-57.2C-24.8,-64.8,-12.4,-71.6,2.3,-75.2C17,-78.8,34,-79.1,47.7,-72.3Z" transform="translate(100 100)" />
</svg>
